<svg width="382" height="296" viewBox="0 0 382 296" fill="none" xmlns="http://www.w3.org/2000/svg">
<path d="M373.905 185.172C397.042 287.44 340.188 142.747 237.92 165.885C135.652 189.022 106.373 280.922 45.526 216.828C-15.3206 152.733 44.5708 65.0309 146.839 41.8937C249.106 18.7564 350.767 82.9044 373.905 185.172Z" fill="#E94825"/>
<path d="M153.542 108.795V123.158H213.205V108.795H153.542ZM209.614 108.795V111.143C200.913 138.903 175.363 155.199 144.151 161.138C147.189 164.453 150.642 170.806 152.299 174.949C187.378 166.386 214.862 148.708 226.325 112.524L215.691 108.104L212.79 108.795H209.614ZM174.534 120.396L160.447 124.954C173.153 149.951 194.56 166.524 224.392 174.258C226.739 169.839 231.297 163.21 234.888 159.895C206.437 154.371 184.754 140.145 174.534 120.396ZM153.542 183.373V198.013H227.016V183.373H153.542ZM147.465 214.31V229.225H233.092V214.31H147.465ZM182.268 170.529V222.734H198.841V170.529H182.268ZM121.777 102.856V232.54H137.659V102.856H121.777ZM108.38 130.202C107.966 142.079 105.895 157.409 102.304 166.386L115.148 171.22C118.739 160.724 120.948 144.289 120.948 131.859L108.38 130.202ZM134.207 130.478C137.659 138.764 141.803 149.813 143.46 156.58L156.166 150.504C154.232 144.151 149.813 133.516 146.084 125.506L134.207 130.478Z" fill="white"/>
<path d="M260.576 151.747H296.76V158.652H260.576V151.747ZM260.576 135.726H296.76V142.355H260.576V135.726ZM246.765 125.644V168.596H311.262V125.644H246.765ZM241.379 173.015V185.445H316.648V173.015H241.379ZM257.676 213.067V225.496H301.456V213.067H257.676ZM313.333 140.698V155.89H369.405V140.698H313.333ZM271.901 129.925V162.933H285.159V129.925H271.901ZM331.149 102.856V145.394C331.149 167.905 330.044 201.051 306.842 221.629C310.847 224.253 316.648 229.916 319.134 233.231C343.579 208.923 347.17 172.325 347.17 145.394V102.856H331.149ZM347.86 149.123L334.602 151.056C338.469 185.721 345.236 215.967 361.533 233.231C364.295 228.811 369.682 222.596 373.41 219.558C358.357 205.747 351.175 178.263 347.86 149.123ZM242.346 109.624C245.936 115.286 249.665 123.158 250.77 128.13L263.891 122.606C262.371 117.634 258.366 110.176 254.499 104.652L242.346 109.624ZM265.133 106.861C268.31 112.662 271.348 120.396 272.177 125.368L285.297 120.672C284.192 115.7 280.878 108.242 277.563 102.58L265.133 106.861ZM347.999 111.971C352.418 119.567 356.837 129.649 358.08 136.002L371.891 130.616C370.234 124.125 365.538 114.457 360.981 107.138L347.999 111.971ZM297.865 103.823C296.07 110.452 292.479 119.705 289.302 125.782L301.594 129.511C305.323 123.987 310.019 115.562 314.3 107.552L297.865 103.823ZM249.389 190.141V231.021H264.443V202.57H293.169V229.778H308.914V190.141H249.389Z" fill="white"/>
</svg>
